<?xml version="1.0" ?><svg height="40" viewBox="0 0 38 40" width="38" xmlns="http://www.w3.org/2000/svg"><g fill="none" fill-rule="evenodd" transform="translate(-5 -4)"><rect height="48" width="48"/><circle cx="24" cy="24" fill="#4A90E2" r="12"/><path d="M24,4.625 C24.6995607,4.625 25.2666667,5.19210598 25.2666667,5.89166667 L25.2666667,8.35833333 C25.2666667,9.05789402 24.6995607,9.625 24,9.625 C23.3004393,9.625 22.7333333,9.05789402 22.7333333,8.35833333 L22.7333333,5.89166667 C22.7333333,5.19210598 23.3004393,4.625 24,4.625 Z M35.5205909,8.32529573 C36.0865474,8.73648719 36.2120093,9.5286221 35.8008178,10.0945786 L34.3509475,12.0901538 C33.9397561,12.6561103 33.1476212,12.7815722 32.5816647,12.3703807 C32.0157082,11.9591893 31.8902464,11.1670543 32.3014378,10.6010979 L33.7513081,8.60552261 C34.1624996,8.03956613 34.9546345,7.91410428 35.5205909,8.32529573 Z M42.6407077,18.0127957 C42.8568839,18.6781175 42.4927794,19.3927127 41.8274577,19.6088888 L39.4815183,20.3711308 C38.8161965,20.5873069 38.1016013,20.2232025 37.8854251,19.5578807 C37.669249,18.892559 38.0333535,18.1779637 38.6986752,17.9617876 L41.0446146,17.1995457 C41.7099364,16.9833695 42.4245316,17.347474 42.6407077,18.0127957 Z M42.6407077,29.9872043 C42.4245316,30.652526 41.7099364,31.0166305 41.0446146,30.8004543 L38.6986752,30.0382124 C38.0333535,29.8220363 37.669249,29.107441 37.8854251,28.4421193 C38.1016013,27.7767975 38.8161965,27.4126931 39.4815183,27.6288692 L41.8274577,28.3911112 C42.4927794,28.6072873 42.8568839,29.3218825 42.6407077,29.9872043 Z M35.5205909,39.6747043 C34.9546345,40.0858957 34.1624996,39.9604339 33.7513081,39.3944774 L32.3014378,37.3989021 C31.8902464,36.8329457 32.0157082,36.0408107 32.5816647,35.6296193 C33.1476212,35.2184278 33.9397561,35.3438897 34.3509475,35.9098462 L35.8008178,37.9054214 C36.2120093,38.4713779 36.0865474,39.2635128 35.5205909,39.6747043 Z M24,43.375 C23.3004393,43.375 22.7333333,42.807894 22.7333333,42.1083333 L22.7333333,39.6416667 C22.7333333,38.942106 23.3004393,38.375 24,38.375 C24.6995607,38.375 25.2666667,38.942106 25.2666667,39.6416667 L25.2666667,42.1083333 C25.2666667,42.807894 24.6995607,43.375 24,43.375 Z M12.4794091,39.6747043 C11.9134526,39.2635128 11.7879907,38.4713779 12.1991822,37.9054214 L13.6490525,35.9098462 C14.0602439,35.3438897 14.8523788,35.2184278 15.4183353,35.6296193 C15.9842918,36.0408107 16.1097536,36.8329457 15.6985622,37.3989021 L14.2486919,39.3944774 C13.8375004,39.9604339 13.0453655,40.0858957 12.4794091,39.6747043 Z M5.35929228,29.9872043 C5.14311614,29.3218825 5.5072206,28.6072873 6.17254234,28.3911112 L8.51848175,27.6288692 C9.18380349,27.4126931 9.89839872,27.7767975 10.1145749,28.4421193 C10.330751,29.107441 9.96664655,29.8220363 9.3013248,30.0382124 L6.95538539,30.8004543 C6.29006365,31.0166305 5.57546842,30.652526 5.35929228,29.9872043 Z M5.35929228,18.0127957 C5.57546842,17.347474 6.29006365,16.9833695 6.95538539,17.1995457 L9.3013248,17.9617876 C9.96664655,18.1779637 10.330751,18.892559 10.1145749,19.5578807 C9.89839872,20.2232025 9.18380349,20.5873069 8.51848175,20.3711308 L6.17254234,19.6088888 C5.5072206,19.3927127 5.14311614,18.6781175 5.35929228,18.0127957 Z M12.4794091,8.32529573 C13.0453655,7.91410428 13.8375004,8.03956613 14.2486919,8.60552261 L15.6985622,10.6010979 C16.1097536,11.1670543 15.9842918,11.9591893 15.4183353,12.3703807 C14.8523788,12.7815722 14.0602439,12.6561103 13.6490525,12.0901538 L12.1991822,10.0945786 C11.7879907,9.5286221 11.9134526,8.73648719 12.4794091,8.32529573 Z" fill="#4A90E2"/></g></svg>