<?xml version="1.0" ?><svg height="26" viewBox="0 0 40 26" width="40" xmlns="http://www.w3.org/2000/svg"><g fill="none" fill-rule="evenodd" transform="translate(-4 -11)"><rect height="48" width="48"/><path d="M40.4018094,23.4273903 C41.5108167,24.0299331 42.4098904,24.9003826 43.031949,25.9738413 C43.6548634,27.0487767 44,28.3272802 44,29.744186 C44,31.1610919 43.6548634,32.4395954 43.031949,33.5145308 C42.4090346,34.5894662 41.5083425,35.4608335 40.3972314,36.063467 C39.2861203,36.6661004 37.9645902,37 36.5,37 L11.5,37 C10.0354098,37 8.71387975,36.6661004 7.60276864,36.063467 C6.49165753,35.4608335 5.59096537,34.5894662 4.96805099,33.5145308 C4.3451366,32.4395954 4,31.1610919 4,29.744186 C4,28.3272802 4.3451366,27.0487767 4.96805099,25.9738413 C5.59096537,24.8989059 6.49165753,24.0275386 7.60276864,23.4249051 C7.95321793,23.2348319 8.32459967,23.0714923 8.7148004,22.936931 C8.66311939,22.5930873 8.63636364,22.2414269 8.63636364,21.8837209 C8.63636364,17.8764455 11.994228,14.627907 16.1363636,14.627907 C18.2889806,14.627907 20.2297853,15.505257 21.5975614,16.9105015 C23.1152019,13.4372475 26.6696474,11 30.8125,11 C36.3353475,11 40.8125,15.3313847 40.8125,20.6744186 C40.8125,21.6308381 40.6690426,22.5548423 40.4018094,23.4273903 Z" fill="#4A90E2"/></g></svg>