<?xml version="1.0" ?><svg height="39" viewBox="0 0 40 39" width="40" xmlns="http://www.w3.org/2000/svg"><g fill="none" fill-rule="evenodd" transform="translate(-4 -4)"><rect height="48" width="48"/><path d="M9.39365566,20.7069199 C10.8372041,22.1251854 12.8164401,23 15,23 C19.418278,23 23,19.418278 23,15 C23,14.2967476 22.909258,13.6146892 22.738844,12.9648945 C24.558222,10.5610569 27.4969236,9 30.8125,9 C36.3353475,9 40.8125,13.3313847 40.8125,18.6744186 C40.8125,19.6308381 40.6690426,20.5548423 40.4018094,21.4273903 C41.5108167,22.0299331 42.4098904,22.9003826 43.031949,23.9738413 C43.6548634,25.0487767 44,26.3272802 44,27.744186 C44,29.1610919 43.6548634,30.4395954 43.031949,31.5145308 C42.4090346,32.5894662 41.5083425,33.4608335 40.3972314,34.063467 C39.2861203,34.6661004 37.9645902,35 36.5,35 L11.5,35 C10.0354098,35 8.71387975,34.6661004 7.60276864,34.063467 C6.49165753,33.4608335 5.59096537,32.5894662 4.96805099,31.5145308 C4.3451366,30.4395954 4,29.1610919 4,27.744186 C4,26.3272802 4.3451366,25.0487767 4.96805099,23.9738413 C5.59096537,22.8989059 6.49165753,22.0275386 7.60276864,21.4249051 C7.95321793,21.2348319 8.32459967,21.0714923 8.7148004,20.936931 C8.70980645,20.9037053 9.00292634,20.8294154 9.39365566,20.7069199 Z" fill="#4A90E2"/><rect fill="#4A90E2" height="5.176" rx="1" width="2" x="12.366" y="37.912"/><rect fill="#4A90E2" height="5.176" rx="1" width="2" x="22.366" y="37.912"/><rect fill="#4A90E2" height="5.176" rx="1" width="2" x="32.366" y="37.912"/><circle cx="15" cy="15" fill="#4A90E2" r="6"/><path d="M15,4 C15.5522847,4 16,4.44771525 16,5 L16,7 C16,7.55228475 15.5522847,8 15,8 C14.4477153,8 14,7.55228475 14,7 L14,5 C14,4.44771525 14.4477153,4 15,4 Z M22.0706637,6.57351113 C22.4937384,6.92851292 22.5489223,7.55926851 22.1939205,7.98234318 L20.9083453,9.51443206 C20.5533435,9.93750673 19.9225879,9.99269069 19.4995133,9.6376889 C19.0764386,9.2826871 19.0212546,8.65193151 19.3762564,8.22885685 L20.6618317,6.69676796 C21.0168334,6.2736933 21.647589,6.21850933 22.0706637,6.57351113 Z M5.47372056,20.5 C5.19757818,20.0217074 5.36145334,19.410117 5.83974596,19.1339746 L7.57179677,18.1339746 C8.05008939,17.8578322 8.6616798,18.0217074 8.93782217,18.5 C9.21396455,18.9782926 9.05008939,19.589883 8.57179677,19.8660254 L6.83974596,20.8660254 C6.36145334,21.1421678 5.74986293,20.9782926 5.47372056,20.5 Z M4.16711472,13.08987 C4.26301796,12.5459757 4.78167634,12.1828072 5.32557065,12.2787105 L7.29518615,12.6260068 C7.83908046,12.7219101 8.20224897,13.2405685 8.10634573,13.7844628 C8.01044249,14.3283571 7.4917841,14.6915256 6.9478898,14.5956223 L4.97827429,14.248326 C4.43437999,14.1524227 4.07121148,13.6337643 4.16711472,13.08987 Z M7.92933629,6.57351113 C8.35241096,6.21850933 8.98316655,6.2736933 9.33816835,6.69676796 L10.6237436,8.22885685 C10.9787454,8.65193151 10.9235614,9.2826871 10.5004867,9.6376889 C10.0774121,9.99269069 9.44665647,9.93750673 9.09165468,9.51443206 L7.80607946,7.98234318 C7.45107767,7.55926851 7.50626163,6.92851292 7.92933629,6.57351113 Z" fill="#4A90E2"/></g></svg>