<?xml version="1.0" ?><svg height="36" viewBox="0 0 40 36" width="40" xmlns="http://www.w3.org/2000/svg"><g fill="none" fill-rule="evenodd" transform="translate(-4 -4)"><rect height="48" width="48"/><path d="M40.4018094,16.4273903 C41.5108167,17.0299331 42.4098904,17.9003826 43.031949,18.9738413 C43.6548634,20.0487767 44,21.3272802 44,22.744186 C44,24.1610919 43.6548634,25.4395954 43.031949,26.5145308 C42.4090346,27.5894662 41.5083425,28.4608335 40.3972314,29.063467 C39.2861203,29.6661004 37.9645902,30 36.5,30 L11.5,30 C10.0354098,30 8.71387975,29.6661004 7.60276864,29.063467 C6.49165753,28.4608335 5.59096537,27.5894662 4.96805099,26.5145308 C4.3451366,25.4395954 4,24.1610919 4,22.744186 C4,21.3272802 4.3451366,20.0487767 4.96805099,18.9738413 C5.59096537,17.8989059 6.49165753,17.0275386 7.60276864,16.4249051 C7.95321793,16.2348319 8.32459967,16.0714923 8.7148004,15.936931 C8.66311939,15.5930873 8.63636364,15.2414269 8.63636364,14.8837209 C8.63636364,10.8764455 11.994228,7.62790698 16.1363636,7.62790698 C18.2889806,7.62790698 20.2297853,8.50525705 21.5975614,9.91050151 C23.1152019,6.43724746 26.6696474,4 30.8125,4 C36.3353475,4 40.8125,8.33138475 40.8125,13.6744186 C40.8125,14.6308381 40.6690426,15.5548423 40.4018094,16.4273903 Z" fill="#4A90E2"/><rect fill="#4A90E2" height="2" rx="1" width="28" x="10" y="33"/><rect fill="#4A90E2" height="2" rx="1" width="28" x="10" y="38"/></g></svg>