<?xml version="1.0" ?><svg height="28" viewBox="0 0 40 28" width="40" xmlns="http://www.w3.org/2000/svg"><g fill="none" fill-rule="evenodd" transform="translate(-4 -10)"><rect height="48" width="48"/><path d="M9,20.5184382 C9.73201965,20.7883261 10.5239327,20.9357918 11.3505241,20.9357918 C15.0810049,20.9357918 18.1051572,17.9322149 18.1051572,14.227115 C18.1051572,12.6248162 17.5395814,11.153716 16.5958909,10 C19.1675413,10.9481403 21,13.4071909 21,16.2913232 C21,19.9964231 17.9758477,23 14.2453668,23 C12.1281609,23 10.2384666,22.0325349 9,20.5184382 Z" fill="#4A90E2"/><path d="M8.84168437,23.3760214 C10.3023876,24.3994403 12.0810597,25 14,25 C18.9705627,25 23,20.9705627 23,16 C23,15.7234954 22.9875308,15.4499031 22.9631241,15.1797548 C24.7945709,12.9383404 27.6299114,11.5 30.8125,11.5 C36.3353475,11.5 40.8125,15.8313847 40.8125,21.1744186 C40.8125,22.1308381 40.6690426,23.0548423 40.4018094,23.9273903 C41.5108167,24.5299331 42.4098904,25.4003826 43.031949,26.4738413 C43.6548634,27.5487767 44,28.8272802 44,30.244186 C44,31.6610919 43.6548634,32.9395954 43.031949,34.0145308 C42.4090346,35.0894662 41.5083425,35.9608335 40.3972314,36.563467 C39.2861203,37.1661004 37.9645902,37.5 36.5,37.5 L11.5,37.5 C10.0354098,37.5 8.71387975,37.1661004 7.60276864,36.563467 C6.49165753,35.9608335 5.59096537,35.0894662 4.96805099,34.0145308 C4.3451366,32.9395954 4,31.6610919 4,30.244186 C4,28.8272802 4.3451366,27.5487767 4.96805099,26.4738413 C5.59096537,25.3989059 6.49165753,24.5275386 7.60276864,23.9249051 C7.95321793,23.7348319 8.32459967,23.5714923 8.7148004,23.436931 C8.71278132,23.4234976 8.75949305,23.4033518 8.84168437,23.3760214 Z" fill="#4A90E2"/></g></svg>