<?xml version="1.0" ?><svg height="32" viewBox="0 0 40 32" width="40" xmlns="http://www.w3.org/2000/svg"><g fill="none" fill-rule="evenodd" transform="translate(-4 -8)"><rect height="48" width="48"/><rect fill="#4A90E2" height="2" rx="1" width="28" x="10" y="38"/><rect fill="#4A90E2" height="2" rx="1" width="28" x="10" y="33"/><path d="M4,28 C4,16.954305 12.954305,8 24,8 C35.045695,8 44,16.954305 44,28 M41,28 C41,18.6111593 33.3888407,11 24,11 C14.6111593,11 7,18.6111593 7,28" fill="#4A90E2"/><path d="M10,28 C10,20.2680135 16.2680135,14 24,14 C31.7319865,14 38,20.2680135 38,28 M35,28 C35,21.9248678 30.0751322,17 24,17 C17.9248678,17 13,21.9248678 13,28" fill="#4A90E2"/><path d="M32,28 C30.7765936,28 27.9614041,28 24,28 C20.0385959,28 16,28 16,28 C16,23.581722 19.581722,20 24,20 C28.418278,20 32,23.581722 32,28 Z M29.0077435,28 C29.0077435,25.2385763 26.7614237,23 24,23 C21.2385763,23 19,25.2385763 19,28 C19.6660862,28 28.0453989,28 29.0077435,28 Z" fill="#4A90E2"/></g></svg>