<?xml version="1.0" ?><svg height="40" viewBox="0 0 40 40" width="40" xmlns="http://www.w3.org/2000/svg"><g fill="none" fill-rule="evenodd" transform="translate(-4 -4)"><rect height="48" width="48"/><path d="M44,27.0399876 C42.8171985,25.9556836 41.2406825,25.2939521 39.5096108,25.2939521 C37.4215252,25.2939521 35.55832,26.2567791 34.3397405,27.7626875 C33.1211611,26.2567791 31.2579558,25.2939521 29.1698703,25.2939521 C27.0817847,25.2939521 25.2185794,26.2567791 24,27.7626875 C22.7814206,26.2567791 20.9182153,25.2939521 18.8301297,25.2939521 C16.7420442,25.2939521 14.8788389,26.2567791 13.6602595,27.7626875 C12.44168,26.2567791 10.5784748,25.2939521 8.49038918,25.2939521 C6.75931753,25.2939521 5.18280154,25.9556836 4,27.0399876 C6.67839336,18.2942365 14.2526836,12 24,12 C33.7473164,12 41.3216066,18.2942365 44,27.0399876 Z" fill="#4A90E2"/><rect fill="#4A90E2" height="5.176" rx="1" width="2" x="13.366" y="3.912"/><rect fill="#4A90E2" height="5.176" rx="1" width="2" x="23.366" y="3.912"/><rect fill="#4A90E2" height="5.176" rx="1" width="2" x="33.366" y="3.912"/><path d="M17,39 C17,40.6568542 18.3431458,42 20,42 C21.6568542,42 23,40.6568542 23,39 L23,18 L25,18 L25,39 C25,41.7614237 22.7614237,44 20,44 C17.2385763,44 15,41.7614237 15,39 C15,38.4477153 15.4477153,38 16,38 C16.5522847,38 17,38.4477153 17,39 Z" fill="#4A90E2"/></g></svg>